<svg width="17" height="15" viewBox="0 0 17 15" fill="none" xmlns="http://www.w3.org/2000/svg">
<path d="M9.87217 2.22603L9.87171 2.2265L9.21761 2.90053L8.49998 3.64002L7.78235 2.90053L7.12824 2.2265L7.1271 2.22532C5.78385 0.836583 3.6711 0.670721 2.29937 1.83914L9.87217 2.22603ZM9.87217 2.22603C11.2193 0.836003 13.3293 0.671055 14.7006 1.83914L9.87217 2.22603ZM14.9568 7.28576L14.957 7.28556C16.4304 5.76512 16.3405 3.2394 14.7012 1.83964L14.9568 7.28576ZM14.9568 7.28576L8.53222 13.9195C8.52342 13.9286 8.51677 13.9321 8.51284 13.9338C8.50826 13.9357 8.50337 13.9367 8.49832 13.9367C8.49327 13.9367 8.48838 13.9357 8.4838 13.9338C8.47986 13.9321 8.47322 13.9286 8.46442 13.9195L2.04023 7.28619C2.04013 7.2861 2.04004 7.286 2.03995 7.2859M14.9568 7.28576L2.03995 7.2859M2.03995 7.2859C2.0399 7.28586 2.03985 7.28581 2.03981 7.28576M2.03995 7.2859L2.03981 7.28576M2.03981 7.28576C0.569346 5.76509 0.659513 3.23894 2.2992 1.83929L2.03981 7.28576Z" stroke="white" stroke-width="2"/>
</svg>
